<svg xmlns="http://www.w3.org/2000/svg" width="10" height="13" viewBox="0 0 10 13">
    <path fill="#FFF" fill-rule="nonzero" d="M9.757 5.84a.8.8 0 0 0-.59-.246h-.278V3.916c0-1.072-.382-1.993-1.146-2.762C6.979.384 6.065 0 5 0S3.02.385 2.257 1.154c-.764.77-1.146 1.69-1.146 2.762v1.678H.833a.8.8 0 0 0-.59.245.812.812 0 0 0-.243.595v5.035c0 .233.081.43.243.594a.801.801 0 0 0 .59.245h8.334a.801.801 0 0 0 .59-.245.813.813 0 0 0 .243-.594V6.434a.812.812 0 0 0-.243-.595zm-2.57-.475H2.813V3.742c0-.598.214-1.108.641-1.53A2.12 2.12 0 0 1 5 1.578c.604 0 1.12.211 1.547.634.427.422.64.932.64 1.53v1.623z"/>
</svg>
